<svg xmlns="http://www.w3.org/2000/svg" viewBox="0 0 137.09 195.18"><defs><style>.a{fill:#211e1f;}.b{fill:#f6f6f6;}.c{fill:#fff;}</style></defs><path class="a" d="M137.09,186.84A97.59,97.59,0,1,1,97.58,0a97,97,0,0,1,39.51,8.34,97.61,97.61,0,0,0,0,178.5Z"/><polygon class="b" points="81.14 156.6 84.33 163.07 91.47 164.11 86.31 169.14 87.53 176.25 81.14 172.89 74.76 176.25 75.98 169.14 70.82 164.11 77.95 163.07 81.14 156.6"/><polygon class="c" points="97.59 168.44 100.78 174.9 107.92 175.94 102.75 180.97 103.97 188.08 97.59 184.72 91.21 188.08 92.42 180.97 87.26 175.94 94.4 174.9 97.59 168.44"/></svg>